<svg width="166" height="39" viewBox="0 0 166 39" fill="none" xmlns="http://www.w3.org/2000/svg">
<path d="M54.7891 14.9978C54.7891 15.5479 54.9267 16.0369 55.2017 16.4647C55.492 16.8926 55.8435 17.2669 56.256 17.5878C56.6686 17.9087 57.2264 18.2984 57.9293 18.7568C58.6933 19.2457 59.3045 19.6736 59.7629 20.0403C60.2213 20.407 60.611 20.8578 60.9319 21.3926C61.2527 21.9122 61.4132 22.5157 61.4132 23.2034C61.4132 23.9979 61.1993 24.7085 60.7714 25.335C60.3436 25.9462 59.7476 26.4275 58.9836 26.779C58.2349 27.1151 57.3944 27.2832 56.4623 27.2832C55.7747 27.2832 55.0565 27.1915 54.3078 27.0082C53.5591 26.8095 53.0548 26.5956 52.795 26.3664C52.7186 26.3053 52.6575 26.2518 52.6117 26.206C52.5811 26.1448 52.5658 26.0532 52.5658 25.9309L52.4971 22.2865V22.2636C52.4971 22.2025 52.5353 22.1719 52.6117 22.1719C52.6881 22.1567 52.7339 22.1796 52.7492 22.2407C53.2076 23.1728 53.6049 23.9292 53.9411 24.5098C54.2925 25.0905 54.728 25.6024 55.2475 26.0455C55.7824 26.4886 56.3859 26.7102 57.0583 26.7102C57.6695 26.7102 58.1737 26.5498 58.571 26.2289C58.9683 25.8927 59.167 25.3273 59.167 24.5328C59.167 23.8604 59.0142 23.2721 58.7086 22.7679C58.4182 22.2636 58.0591 21.8358 57.6313 21.4843C57.2034 21.1329 56.6151 20.7127 55.8664 20.2237C55.1329 19.75 54.5599 19.3451 54.1474 19.0089C53.7501 18.6727 53.4063 18.2678 53.1159 17.7941C52.8256 17.3204 52.6804 16.7627 52.6804 16.1209C52.6804 15.311 52.9096 14.6311 53.3681 14.081C53.8417 13.5156 54.4453 13.103 55.1788 12.8433C55.9122 12.5682 56.6839 12.4307 57.4938 12.4307C58.0286 12.4307 58.571 12.4842 59.1211 12.5911C59.6712 12.6828 60.1144 12.7974 60.4505 12.9349C60.588 12.9961 60.6797 13.0648 60.7256 13.1412C60.7714 13.2023 60.7943 13.2864 60.7943 13.3933V16.7627C60.7943 16.8085 60.7561 16.8467 60.6797 16.8773C60.6033 16.8926 60.5575 16.8773 60.5422 16.8314L60.3588 16.3959C59.9768 15.4333 59.5261 14.6158 59.0065 13.9434C58.5023 13.2711 57.7917 12.9349 56.8749 12.9349C56.2637 12.9349 55.7594 13.1107 55.3621 13.4621C54.9801 13.8136 54.7891 14.3254 54.7891 14.9978Z" fill="white"/>
<path d="M72.2007 25.7705C72.2619 25.7705 72.3001 25.8087 72.3153 25.8851C72.3459 25.9462 72.3306 25.992 72.2695 26.0226L69.9087 27.1457C69.8475 27.1763 69.7711 27.1915 69.6795 27.1915C69.4503 27.1915 69.2211 27.0769 68.9918 26.8477C68.7779 26.6185 68.6251 26.3053 68.5334 25.908L67.4791 26.481C67.0818 26.6797 66.6692 26.8477 66.2414 26.9853C65.8135 27.1075 65.4315 27.1686 65.0953 27.1686C64.6064 27.1686 64.2167 27.0464 63.9264 26.8019C63.6513 26.5421 63.5138 26.1754 63.5138 25.7017C63.5138 25.3503 63.5979 25.0676 63.7659 24.8536C63.9493 24.6397 64.2014 24.464 64.5223 24.3265C64.8585 24.1737 65.3857 23.975 66.1039 23.7305L68.4418 22.9742V21.1634C68.4418 20.2466 68.3501 19.5743 68.1667 19.1464C67.9833 18.7033 67.6854 18.4817 67.2728 18.4817C66.9061 18.4817 66.6157 18.6192 66.4018 18.8943C66.1879 19.1693 66.058 19.6201 66.0122 20.2466C65.9205 21.1023 65.4697 21.5302 64.6599 21.5302C63.9417 21.5302 63.5826 21.2169 63.5826 20.5904C63.5826 20.1778 63.8424 19.7653 64.3619 19.3527C64.8814 18.9401 65.5079 18.604 66.2414 18.3442C66.9748 18.0844 67.6166 17.9545 68.1667 17.9545C68.8849 17.9545 69.4655 18.1685 69.9087 18.5963C70.3671 19.0242 70.5963 19.6507 70.5963 20.4758V24.5328C70.5963 24.9759 70.6727 25.3197 70.8255 25.5642C70.9936 25.8087 71.2228 25.9309 71.5131 25.9309C71.727 25.9309 71.9486 25.8774 72.1778 25.7705H72.2007ZM68.4647 25.5413C68.4494 25.4343 68.4418 25.2739 68.4418 25.0599V23.3638L67.1811 23.8222C66.7685 23.975 66.4706 24.1431 66.2872 24.3265C66.1191 24.5098 66.0351 24.7314 66.0351 24.9912C66.0351 25.3121 66.1268 25.5642 66.3101 25.7475C66.4935 25.9309 66.7227 26.0226 66.9978 26.0226C67.3339 26.0226 67.7236 25.9156 68.1667 25.7017L68.4647 25.5413Z" fill="white"/>
<path d="M79.0975 17.9316C79.4489 17.9316 79.7851 18.0615 80.106 18.3213C80.4422 18.5658 80.6103 18.8637 80.6103 19.2152C80.6103 19.5361 80.5109 19.8035 80.3123 20.0174C80.1136 20.216 79.8539 20.3154 79.533 20.3154C79.3038 20.3154 79.1128 20.2695 78.96 20.1778C78.8225 20.0862 78.6773 19.9486 78.5245 19.7653C78.387 19.6125 78.2647 19.5055 78.1578 19.4444C78.0661 19.368 77.9515 19.3298 77.8139 19.3298C77.6611 19.3298 77.4931 19.3909 77.3097 19.5131C77.1416 19.6201 76.8742 19.857 76.5075 20.2237V25.1516C76.5075 25.7628 76.6526 26.183 76.943 26.4122C77.2333 26.6262 77.7681 26.7331 78.5474 26.7331C78.6085 26.7331 78.6391 26.779 78.6391 26.8707C78.6391 26.9623 78.6085 27.0082 78.5474 27.0082C78.0126 27.0082 77.5924 27.0005 77.2868 26.9853L75.4302 26.9623L74.0779 26.9853C73.8487 27.0005 73.5354 27.0082 73.1381 27.0082C73.0923 27.0082 73.0694 26.9623 73.0694 26.8707C73.0694 26.779 73.0923 26.7331 73.1381 26.7331C73.6118 26.7331 73.9327 26.6262 74.1008 26.4122C74.2689 26.183 74.3529 25.7628 74.3529 25.1516V20.8425C74.3529 20.3688 74.2918 20.025 74.1696 19.8111C74.0626 19.5819 73.8869 19.4673 73.6424 19.4673C73.3826 19.4673 73.0159 19.5743 72.5422 19.7882H72.4964C72.4505 19.7882 72.4123 19.75 72.3818 19.6736C72.3665 19.5972 72.3741 19.5513 72.4047 19.5361L75.5906 17.9775C75.6823 17.9469 75.7358 17.9316 75.7511 17.9316C75.9192 17.9316 76.072 18.0921 76.2095 18.413C76.3623 18.7186 76.454 19.1388 76.4846 19.6736C77.111 19.0318 77.6229 18.581 78.0202 18.3213C78.4328 18.0615 78.7919 17.9316 79.0975 17.9316Z" fill="white"/>
<path d="M90.2641 25.7705C90.3253 25.7705 90.3635 25.8087 90.3787 25.8851C90.4093 25.9462 90.394 25.992 90.3329 26.0226L87.9721 27.1457C87.9109 27.1763 87.8345 27.1915 87.7429 27.1915C87.5137 27.1915 87.2845 27.0769 87.0552 26.8477C86.8413 26.6185 86.6885 26.3053 86.5968 25.908L85.5425 26.481C85.1452 26.6797 84.7326 26.8477 84.3048 26.9853C83.8769 27.1075 83.4949 27.1686 83.1587 27.1686C82.6698 27.1686 82.2801 27.0464 81.9898 26.8019C81.7147 26.5421 81.5772 26.1754 81.5772 25.7017C81.5772 25.3503 81.6613 25.0676 81.8293 24.8536C82.0127 24.6397 82.2648 24.464 82.5857 24.3265C82.9219 24.1737 83.4491 23.975 84.1673 23.7305L86.5052 22.9742V21.1634C86.5052 20.2466 86.4135 19.5743 86.2301 19.1464C86.0467 18.7033 85.7488 18.4817 85.3362 18.4817C84.9695 18.4817 84.6791 18.6192 84.4652 18.8943C84.2513 19.1693 84.1214 19.6201 84.0756 20.2466C83.9839 21.1023 83.5331 21.5302 82.7233 21.5302C82.0051 21.5302 81.646 21.2169 81.646 20.5904C81.646 20.1778 81.9058 19.7653 82.4253 19.3527C82.9448 18.9401 83.5713 18.604 84.3048 18.3442C85.0382 18.0844 85.68 17.9545 86.2301 17.9545C86.9483 17.9545 87.5289 18.1685 87.9721 18.5963C88.4305 19.0242 88.6597 19.6507 88.6597 20.4758V24.5328C88.6597 24.9759 88.7361 25.3197 88.8889 25.5642C89.057 25.8087 89.2862 25.9309 89.5765 25.9309C89.7904 25.9309 90.012 25.8774 90.2412 25.7705H90.2641ZM86.5281 25.5413C86.5128 25.4343 86.5052 25.2739 86.5052 25.0599V23.3638L85.2445 23.8222C84.8319 23.975 84.534 24.1431 84.3506 24.3265C84.1825 24.5098 84.0985 24.7314 84.0985 24.9912C84.0985 25.3121 84.1902 25.5642 84.3735 25.7475C84.5569 25.9309 84.7861 26.0226 85.0612 26.0226C85.3973 26.0226 85.787 25.9156 86.2301 25.7017L86.5281 25.5413Z" fill="white"/>
<path d="M101.562 26.7331C101.623 26.7331 101.653 26.779 101.653 26.8707C101.653 26.9623 101.623 27.0082 101.562 27.0082C101.164 27.0082 100.843 27.0005 100.599 26.9853L99.2696 26.9623L97.8944 26.9853C97.6652 27.0005 97.3519 27.0082 96.9546 27.0082C96.9241 27.0082 96.9088 26.9623 96.9088 26.8707C96.9088 26.779 96.9241 26.7331 96.9546 26.7331C97.4283 26.7331 97.7492 26.6262 97.9173 26.4122C98.1006 26.183 98.1923 25.7628 98.1923 25.1516V21.851C98.1923 21.0259 98.0395 20.4147 97.7339 20.0174C97.4283 19.6201 96.9546 19.4215 96.3128 19.4215C95.9461 19.4215 95.5641 19.4979 95.1668 19.6507C94.7848 19.8035 94.4486 20.0098 94.1583 20.2695V25.1516C94.1583 25.7628 94.2423 26.183 94.4104 26.4122C94.5938 26.6262 94.9223 26.7331 95.396 26.7331C95.4571 26.7331 95.4877 26.779 95.4877 26.8707C95.4877 26.9623 95.4571 27.0082 95.396 27.0082C94.9987 27.0082 94.6778 27.0005 94.4334 26.9853L93.104 26.9623L91.7287 26.9853C91.4995 27.0005 91.1863 27.0082 90.789 27.0082C90.7584 27.0082 90.7431 26.9623 90.7431 26.8707C90.7431 26.779 90.7584 26.7331 90.789 26.7331C91.2627 26.7331 91.5836 26.6262 91.7516 26.4122C91.935 26.183 92.0267 25.7628 92.0267 25.1516V13.5079C92.0267 12.9731 91.9732 12.5911 91.8662 12.3619C91.7746 12.1327 91.6065 12.0181 91.362 12.0181C91.1481 12.0181 90.8577 12.1022 90.491 12.2702H90.4681C90.4222 12.2702 90.3764 12.232 90.3306 12.1556C90.3 12.064 90.3 12.0105 90.3306 11.9952L93.677 10.4137L93.7916 10.3907C93.868 10.3907 93.9444 10.4289 94.0208 10.5053C94.1125 10.5665 94.1583 10.6276 94.1583 10.6887V19.7653C95.2432 18.5123 96.4045 17.8858 97.6422 17.8858C98.4674 17.8858 99.1168 18.1532 99.5905 18.688C100.079 19.2075 100.324 19.8952 100.324 20.7509V25.1516C100.324 25.7628 100.408 26.183 100.576 26.4122C100.759 26.6262 101.088 26.7331 101.562 26.7331Z" fill="white"/>
<path d="M123.913 12.6828C123.944 12.6828 123.959 12.7286 123.959 12.8203C123.959 12.912 123.944 12.9579 123.913 12.9579C123.302 12.9579 122.82 13.2023 122.469 13.6913C122.118 14.165 121.942 14.8068 121.942 15.6166V27.352C121.942 27.3978 121.904 27.4284 121.827 27.4437C121.766 27.459 121.72 27.4513 121.69 27.4208L110.94 15.1812V24.0973C110.94 24.9071 111.108 25.5489 111.444 26.0226C111.78 26.4963 112.246 26.7331 112.842 26.7331C112.873 26.7331 112.888 26.779 112.888 26.8707C112.888 26.9623 112.873 27.0082 112.842 27.0082C112.415 27.0082 112.086 27.0005 111.857 26.9853L110.619 26.9623L109.198 26.9853C108.938 27.0005 108.564 27.0082 108.075 27.0082C108.029 27.0082 108.006 26.9623 108.006 26.8707C108.006 26.779 108.029 26.7331 108.075 26.7331C108.747 26.7331 109.274 26.4963 109.656 26.0226C110.054 25.5489 110.252 24.9071 110.252 24.0973V14.4019C109.748 13.8518 109.313 13.4774 108.946 13.2787C108.594 13.0648 108.228 12.9579 107.846 12.9579C107.815 12.9579 107.8 12.912 107.8 12.8203C107.8 12.7286 107.815 12.6828 107.846 12.6828L108.808 12.7057C109.007 12.721 109.297 12.7286 109.679 12.7286L111.421 12.7057C111.635 12.6904 111.895 12.6828 112.201 12.6828C112.323 12.6828 112.415 12.7134 112.476 12.7745C112.537 12.8356 112.644 12.9655 112.797 13.1641C113.056 13.5156 113.24 13.7524 113.347 13.8747L121.277 23.02V15.6166C121.277 14.7915 121.109 14.1421 120.773 13.6684C120.437 13.1947 119.971 12.9579 119.375 12.9579C119.344 12.9579 119.329 12.912 119.329 12.8203C119.329 12.7286 119.344 12.6828 119.375 12.6828L120.36 12.7057C120.849 12.7363 121.262 12.7516 121.598 12.7516C121.904 12.7516 122.331 12.7363 122.882 12.7057L123.913 12.6828Z" fill="white"/>
<path d="M135.633 25.5183C135.679 25.5183 135.718 25.5565 135.748 25.6329C135.794 25.7093 135.794 25.7552 135.748 25.7705L132.585 27.3062C132.554 27.3214 132.516 27.3291 132.47 27.3291C132.318 27.3291 132.18 27.1686 132.058 26.8477C131.951 26.5116 131.89 26.0608 131.875 25.4954C130.866 26.6873 129.773 27.2832 128.597 27.2832C127.756 27.2832 127.092 27.0235 126.603 26.5039C126.129 25.9691 125.892 25.2739 125.892 24.4182V21.0488C125.892 20.0556 125.655 19.559 125.182 19.559C125.014 19.559 124.823 19.6125 124.609 19.7194H124.586C124.525 19.7194 124.479 19.6812 124.448 19.6048C124.418 19.5131 124.425 19.4597 124.471 19.4444L127.543 17.9775L127.657 17.9545C127.734 17.9545 127.81 17.9927 127.886 18.0691C127.978 18.1303 128.024 18.1914 128.024 18.2525V23.318C128.024 24.9682 128.658 25.7934 129.926 25.7934C130.262 25.7934 130.599 25.7246 130.935 25.5871C131.286 25.4343 131.599 25.228 131.875 24.9682V21.0488C131.875 20.0556 131.638 19.559 131.164 19.559C130.996 19.559 130.797 19.6125 130.568 19.7194H130.545C130.499 19.7194 130.461 19.6812 130.431 19.6048C130.4 19.5131 130.408 19.4597 130.453 19.4444L133.525 17.9775C133.555 17.9622 133.594 17.9545 133.639 17.9545C133.716 17.9545 133.792 17.9927 133.869 18.0691C133.96 18.1303 134.006 18.1914 134.006 18.2525V24.3494C134.006 24.8689 134.052 25.2357 134.144 25.4496C134.251 25.6635 134.419 25.7705 134.648 25.7705C134.862 25.7705 135.175 25.6864 135.588 25.5183H135.633Z" fill="white"/>
<path d="M142.622 17.9316C142.973 17.9316 143.309 18.0615 143.63 18.3213C143.966 18.5658 144.134 18.8637 144.134 19.2152C144.134 19.5361 144.035 19.8035 143.836 20.0174C143.638 20.216 143.378 20.3154 143.057 20.3154C142.828 20.3154 142.637 20.2695 142.484 20.1778C142.347 20.0862 142.201 19.9486 142.049 19.7653C141.911 19.6125 141.789 19.5055 141.682 19.4444C141.59 19.368 141.476 19.3298 141.338 19.3298C141.185 19.3298 141.017 19.3909 140.834 19.5131C140.666 19.6201 140.398 19.857 140.032 20.2237V25.1516C140.032 25.7628 140.177 26.183 140.467 26.4122C140.757 26.6262 141.292 26.7331 142.072 26.7331C142.133 26.7331 142.163 26.779 142.163 26.8707C142.163 26.9623 142.133 27.0082 142.072 27.0082C141.537 27.0082 141.116 27.0005 140.811 26.9853L138.954 26.9623L137.602 26.9853C137.373 27.0005 137.06 27.0082 136.662 27.0082C136.616 27.0082 136.593 26.9623 136.593 26.8707C136.593 26.779 136.616 26.7331 136.662 26.7331C137.136 26.7331 137.457 26.6262 137.625 26.4122C137.793 26.183 137.877 25.7628 137.877 25.1516V20.8425C137.877 20.3688 137.816 20.025 137.694 19.8111C137.587 19.5819 137.411 19.4673 137.166 19.4673C136.907 19.4673 136.54 19.5743 136.066 19.7882H136.02C135.975 19.7882 135.936 19.75 135.906 19.6736C135.891 19.5972 135.898 19.5513 135.929 19.5361L139.115 17.9775C139.206 17.9469 139.26 17.9316 139.275 17.9316C139.443 17.9316 139.596 18.0921 139.734 18.413C139.886 18.7186 139.978 19.1388 140.009 19.6736C140.635 19.0318 141.147 18.581 141.544 18.3213C141.957 18.0615 142.316 17.9316 142.622 17.9316Z" fill="white"/>
<path d="M153.078 25.4954C153.108 25.4954 153.139 25.526 153.169 25.5871C153.215 25.6482 153.223 25.6941 153.192 25.7246C152.627 26.2747 152.054 26.672 151.473 26.9165C150.893 27.161 150.258 27.2832 149.571 27.2832C148.608 27.2832 147.775 27.0846 147.072 26.6873C146.37 26.2747 145.835 25.7323 145.468 25.0599C145.101 24.3723 144.918 23.6389 144.918 22.8596C144.918 21.9733 145.147 21.1558 145.606 20.407C146.064 19.643 146.69 19.0471 147.485 18.6192C148.28 18.1761 149.166 17.9545 150.144 17.9545C151.091 17.9545 151.817 18.1608 152.321 18.5734C152.826 18.9707 153.078 19.5208 153.078 20.2237C153.078 20.6668 152.994 20.8884 152.826 20.8884H151.427L147.302 20.9342C147.256 21.2246 147.233 21.5454 147.233 21.8969C147.233 23.211 147.539 24.2501 148.15 25.0141C148.776 25.7781 149.632 26.1601 150.717 26.1601C151.099 26.1601 151.496 26.1066 151.909 25.9997C152.321 25.8927 152.696 25.7323 153.032 25.5183L153.078 25.4954ZM149.296 18.413C148.837 18.413 148.44 18.5963 148.104 18.9631C147.768 19.3298 147.523 19.834 147.37 20.4758L150.625 20.407C150.579 19.0777 150.136 18.413 149.296 18.413Z" fill="white"/>
<path d="M165.431 26.7331C165.477 26.7331 165.5 26.779 165.5 26.8707C165.5 26.9623 165.477 27.0082 165.431 27.0082C165.034 27.0082 164.721 27.0005 164.491 26.9853L163.116 26.9623L161.787 26.9853C161.542 27.0005 161.221 27.0082 160.824 27.0082C160.778 27.0082 160.755 26.9623 160.755 26.8707C160.755 26.779 160.778 26.7331 160.824 26.7331C161.298 26.7331 161.619 26.6262 161.787 26.4122C161.955 26.183 162.039 25.7628 162.039 25.1516V21.851C162.039 21.0259 161.886 20.4147 161.581 20.0174C161.29 19.6201 160.824 19.4215 160.182 19.4215C159.816 19.4215 159.434 19.4979 159.036 19.6507C158.654 19.8035 158.318 20.0098 158.028 20.2695V25.1516C158.028 25.7628 158.112 26.183 158.28 26.4122C158.463 26.6262 158.792 26.7331 159.266 26.7331C159.311 26.7331 159.334 26.779 159.334 26.8707C159.334 26.9623 159.311 27.0082 159.266 27.0082C158.868 27.0082 158.555 27.0005 158.326 26.9853L156.951 26.9623L155.598 26.9853C155.369 27.0005 155.056 27.0082 154.658 27.0082C154.613 27.0082 154.59 26.9623 154.59 26.8707C154.59 26.779 154.613 26.7331 154.658 26.7331C155.132 26.7331 155.453 26.6262 155.621 26.4122C155.789 26.183 155.873 25.7628 155.873 25.1516V20.8425C155.873 20.3688 155.812 20.025 155.69 19.8111C155.583 19.5819 155.407 19.4673 155.163 19.4673C154.903 19.4673 154.536 19.5743 154.063 19.7882H154.017C153.971 19.7882 153.933 19.75 153.902 19.6736C153.887 19.5972 153.894 19.5513 153.925 19.5361L157.111 17.9775C157.203 17.9469 157.256 17.9316 157.271 17.9316C157.44 17.9316 157.6 18.0997 157.753 18.4359C157.906 18.7568 157.997 19.1999 158.028 19.7653C159.082 18.5123 160.243 17.8858 161.512 17.8858C162.337 17.8858 162.986 18.1532 163.46 18.688C163.949 19.2075 164.193 19.8952 164.193 20.7509V25.1516C164.193 25.7628 164.277 26.183 164.446 26.4122C164.629 26.6262 164.957 26.7331 165.431 26.7331Z" fill="white"/>
<path d="M8.79914 0.643048L0.643047 8.79914L0.643044 37.94L29.7839 37.94L37.94 29.7839L37.94 0.64305L8.79914 0.643048Z" stroke="#DFAB82" stroke-width="1.2861"/>
<path d="M17.0294 14.5035C17.0294 15.0455 17.173 15.5273 17.4603 15.9489C17.7636 16.3705 18.1307 16.7394 18.5616 17.0556C18.9926 17.3718 19.5751 17.7557 20.3093 18.2074C21.1074 18.6892 21.7458 19.1108 22.2246 19.4721C22.7035 19.8335 23.1105 20.2777 23.4456 20.8046C23.7808 21.3166 23.9484 21.9113 23.9484 22.5888C23.9484 23.3718 23.7249 24.0719 23.278 24.6892C22.8311 25.2915 22.2087 25.7658 21.4106 26.1121C20.6285 26.4433 19.7507 26.6089 18.7771 26.6089C18.0589 26.6089 17.3087 26.5186 16.5266 26.3379C15.7445 26.1422 15.2178 25.9314 14.9465 25.7055C14.8667 25.6453 14.8028 25.5926 14.755 25.5474C14.723 25.4872 14.7071 25.3969 14.7071 25.2764L14.6353 21.6855V21.6629C14.6353 21.6026 14.6752 21.5725 14.755 21.5725C14.8348 21.5575 14.8826 21.5801 14.8986 21.6403C15.3774 22.5587 15.7924 23.304 16.1436 23.8762C16.5107 24.4483 16.9655 24.9527 17.5082 25.3894C18.0668 25.826 18.6973 26.0443 19.3996 26.0443C20.038 26.0443 20.5647 25.8862 20.9797 25.57C21.3947 25.2388 21.6022 24.6817 21.6022 23.8988C21.6022 23.2363 21.4425 22.6566 21.1233 22.1597C20.8201 21.6629 20.445 21.2413 19.9981 20.895C19.5512 20.5487 18.9367 20.1346 18.1546 19.6528C17.3885 19.1861 16.79 18.7871 16.359 18.4558C15.944 18.1246 15.5849 17.7256 15.2817 17.2588C14.9784 16.7921 14.8268 16.2425 14.8268 15.6101C14.8268 14.8122 15.0662 14.1421 15.545 13.6001C16.0398 13.043 16.6703 12.6365 17.4364 12.3805C18.2025 12.1095 19.0085 11.974 19.8544 11.974C20.4131 11.974 20.9797 12.0267 21.5543 12.1321C22.1289 12.2224 22.5917 12.3354 22.9429 12.4709C23.0865 12.5311 23.1823 12.5988 23.2302 12.6741C23.278 12.7344 23.302 12.8172 23.302 12.9226V16.2425C23.302 16.2877 23.2621 16.3253 23.1823 16.3554C23.1025 16.3705 23.0546 16.3554 23.0386 16.3103L22.8471 15.8812C22.4481 14.9326 21.9772 14.1271 21.4346 13.4646C20.9079 12.8021 20.1657 12.4709 19.208 12.4709C18.5696 12.4709 18.0429 12.644 17.6279 12.9903C17.2289 13.3366 17.0294 13.841 17.0294 14.5035Z" fill="#DFAB82"/>
</svg>
